# xmcd CD database file
#
# Track frame offsets:
#	150
#	18211
#	46391
#	67872
#	89372
#	115356
#	133628
#	159775
#	191289
#	206914
#	227677
#	250076
#	275167
#	308952
#
# Disc length: 4318 seconds
#
# Revision: 0
# Processed by: cddbd v1.5.2PL0 Copyright (c) Steve Scherf et al.
# Submitted via: CDex 1.70beta3
#
DISCID=ba10dc0e
DTITLE=Nicola Conte - Rituals
DYEAR=2008
DGENRE=Jazz
TTITLE0=Karma Flower
TTITLE1=The Nubian Queens
TTITLE2=Like Leaves In The Wind
TTITLE3=Love In
TTITLE4=Awakening
TTITLE5=Paper Clouds
TTITLE6=I See All Shades Of You
TTITLE7=Macedonia
TTITLE8=Song Of The Seasons
TTITLE9=Red Sun
TTITLE10=Black Is The Graceful Veil
TTITLE11=Caravan
TTITLE12=Rituals
TTITLE13=The Nubian Queens
EXTD=YEAR: 2008
EXTT0=
EXTT1=
EXTT2=
EXTT3=
EXTT4=
EXTT5=
EXTT6=
EXTT7=
EXTT8=
EXTT9=
EXTT10=
EXTT11=
EXTT12=
EXTT13=
PLAYORDER=
